<svg xmlns="http://www.w3.org/2000/svg" viewBox="0 0 297.15 221.06"><defs><style>.cls-1{fill:#4c4f54;}.cls-2{fill:#4b4f54;}.cls-3{fill:#ff4f1f;}</style></defs><g id="Layer_2" data-name="Layer 2"><g id="Layer_1-2" data-name="Layer 1"><path class="cls-1" d="M25.64,206.71a10.13,10.13,0,0,1-4.72,3.63,19.07,19.07,0,0,1-7.05,1.2,13.69,13.69,0,0,1-7.22-1.91,12.7,12.7,0,0,1-4.88-5.43A18.77,18.77,0,0,1,0,196v-2.9q0-7.51,3.51-11.65t9.86-4.14A12.62,12.62,0,0,1,21.75,180a11.59,11.59,0,0,1,3.89,7.55H21.25q-1.23-6.62-7.86-6.62A7.74,7.74,0,0,0,6.71,184q-2.28,3.09-2.3,9v2.72q0,5.61,2.56,8.91A8.28,8.28,0,0,0,13.89,208a15.07,15.07,0,0,0,4.32-.55,6.54,6.54,0,0,0,3.06-1.85V198.1h-7.7v-3.59H25.64Z"/><path class="cls-1" d="M41.27,211.54a10.81,10.81,0,0,1-8.18-3.31,12.25,12.25,0,0,1-3.15-8.83v-.78a15,15,0,0,1,1.4-6.57,11,11,0,0,1,3.93-4.52,9.9,9.9,0,0,1,5.48-1.63,9.27,9.27,0,0,1,7.49,3.17c1.78,2.12,2.68,5.15,2.68,9.1v1.76H34.17a8.79,8.79,0,0,0,2.13,5.9,6.73,6.73,0,0,0,5.2,2.25,7.34,7.34,0,0,0,3.79-.91A9.47,9.47,0,0,0,48,204.75l2.59,2A10.41,10.41,0,0,1,41.27,211.54Zm-.52-22.17a5.65,5.65,0,0,0-4.3,1.86,9.07,9.07,0,0,0-2.15,5.22H46.69v-.32a8,8,0,0,0-1.74-5A5.3,5.3,0,0,0,40.75,189.37Z"/><path class="cls-1" d="M58.78,186.35l.14,3.11a9,9,0,0,1,7.41-3.56q7.83,0,7.9,8.84v16.34H70V194.72a5.68,5.68,0,0,0-1.22-4,4.9,4.9,0,0,0-3.73-1.28,6.13,6.13,0,0,0-3.62,1.1A7.48,7.48,0,0,0,59,193.46v17.62H54.79V186.35Z"/><path class="cls-1" d="M89.55,211.54a10.81,10.81,0,0,1-8.18-3.31,12.26,12.26,0,0,1-3.16-8.83v-.78a14.81,14.81,0,0,1,1.41-6.57,11,11,0,0,1,3.93-4.52A9.87,9.87,0,0,1,89,185.9a9.28,9.28,0,0,1,7.5,3.17q2.67,3.18,2.67,9.1v1.76H82.44a8.75,8.75,0,0,0,2.14,5.9,6.7,6.7,0,0,0,5.2,2.25,7.36,7.36,0,0,0,3.79-.91,9.6,9.6,0,0,0,2.72-2.42l2.58,2Q95.76,211.53,89.55,211.54ZM89,189.37a5.63,5.63,0,0,0-4.29,1.86,9,9,0,0,0-2.15,5.22H95v-.32a8.08,8.08,0,0,0-1.73-5A5.32,5.32,0,0,0,89,189.37Z"/><path class="cls-1" d="M117,204.52a3.11,3.11,0,0,0-1.29-2.66,12.5,12.5,0,0,0-4.5-1.64,21.08,21.08,0,0,1-5.1-1.64,7.17,7.17,0,0,1-2.79-2.29,5.46,5.46,0,0,1-.9-3.15A6.41,6.41,0,0,1,105,188a10,10,0,0,1,6.57-2.1,10.31,10.31,0,0,1,6.82,2.17,6.87,6.87,0,0,1,2.62,5.55h-4.25a3.78,3.78,0,0,0-1.48-3,5.51,5.51,0,0,0-3.71-1.26,5.78,5.78,0,0,0-3.61,1,3.13,3.13,0,0,0-1.3,2.62,2.56,2.56,0,0,0,1.21,2.31,15,15,0,0,0,4.37,1.49,22.44,22.44,0,0,1,5.13,1.69,7.45,7.45,0,0,1,2.92,2.36,5.84,5.84,0,0,1,.95,3.37,6.37,6.37,0,0,1-2.65,5.32,11.15,11.15,0,0,1-6.88,2,12.47,12.47,0,0,1-5.26-1.06,8.58,8.58,0,0,1-3.57-2.93,7,7,0,0,1-1.3-4.08h4.23a4.41,4.41,0,0,0,1.7,3.37,6.62,6.62,0,0,0,4.2,1.24,6.8,6.8,0,0,0,3.85-1A3,3,0,0,0,117,204.52Z"/><path class="cls-1" d="M133.22,204.89,139,186.35h4.53l-9.94,28.54q-2.31,6.18-7.34,6.17l-.8-.06-1.58-.3v-3.43l1.15.09a5.6,5.6,0,0,0,3.34-.87,6.23,6.23,0,0,0,2-3.17l.94-2.52-8.82-24.45h4.61Z"/><path class="cls-1" d="M159.83,204.52a3.11,3.11,0,0,0-1.29-2.66,12.5,12.5,0,0,0-4.5-1.64,21.08,21.08,0,0,1-5.1-1.64,7.17,7.17,0,0,1-2.79-2.29,5.46,5.46,0,0,1-.9-3.15,6.41,6.41,0,0,1,2.57-5.14,10,10,0,0,1,6.57-2.1,10.31,10.31,0,0,1,6.82,2.17,6.87,6.87,0,0,1,2.62,5.55h-4.25a3.78,3.78,0,0,0-1.48-3,5.51,5.51,0,0,0-3.71-1.26,5.78,5.78,0,0,0-3.61,1,3.13,3.13,0,0,0-1.3,2.62,2.56,2.56,0,0,0,1.21,2.31,15,15,0,0,0,4.37,1.49,22.44,22.44,0,0,1,5.13,1.69,7.45,7.45,0,0,1,2.92,2.36,5.84,5.84,0,0,1,.95,3.37,6.37,6.37,0,0,1-2.65,5.32,11.15,11.15,0,0,1-6.88,2,12.47,12.47,0,0,1-5.26-1.06,8.58,8.58,0,0,1-3.57-2.93,7,7,0,0,1-1.3-4.08h4.23a4.41,4.41,0,0,0,1.7,3.37,6.62,6.62,0,0,0,4.2,1.24,6.8,6.8,0,0,0,3.85-1A3,3,0,0,0,159.83,204.52Z"/><path class="cls-1" d="M204.79,200.52a12.22,12.22,0,0,1-3.9,8.15,12.77,12.77,0,0,1-8.72,2.87,11.69,11.69,0,0,1-9.44-4.23q-3.55-4.23-3.56-11.31v-3.2a18.91,18.91,0,0,1,1.66-8.16,12.34,12.34,0,0,1,4.7-5.41,13.1,13.1,0,0,1,7-1.88,12,12,0,0,1,8.5,3,12.34,12.34,0,0,1,3.73,8.19h-4.41c-.38-2.66-1.21-4.58-2.48-5.78a7.51,7.51,0,0,0-5.34-1.78,7.83,7.83,0,0,0-6.59,3.11q-2.39,3.1-2.39,8.85v3.22a14.76,14.76,0,0,0,2.26,8.63,7.32,7.32,0,0,0,6.33,3.2,8.45,8.45,0,0,0,5.62-1.66c1.3-1.1,2.16-3,2.59-5.77Z"/><path class="cls-1" d="M213.33,211.08h-4.22V176h4.22Z"/><path class="cls-1" d="M217.54,198.49A14.51,14.51,0,0,1,219,192a10.64,10.64,0,0,1,4-4.48,10.84,10.84,0,0,1,5.82-1.57,10.44,10.44,0,0,1,8.17,3.49q3.12,3.5,3.12,9.3v.3a14.75,14.75,0,0,1-1.38,6.48,10.57,10.57,0,0,1-4,4.47,11,11,0,0,1-5.91,1.6,10.4,10.4,0,0,1-8.14-3.5,13.39,13.39,0,0,1-3.12-9.26Zm4.25.5a10.52,10.52,0,0,0,1.91,6.6,6.46,6.46,0,0,0,10.22,0q1.91-2.52,1.9-7.07a10.58,10.58,0,0,0-1.93-6.6,6.15,6.15,0,0,0-5.13-2.52,6.07,6.07,0,0,0-5,2.49Q221.79,194.35,221.79,199Z"/><path class="cls-1" d="M259.27,208.63q-2.47,2.91-7.24,2.91a7.67,7.67,0,0,1-6-2.3q-2.07-2.3-2.1-6.8V186.35h4.23v16c0,3.74,1.53,5.62,4.57,5.62,3.23,0,5.38-1.21,6.45-3.61v-18h4.22v24.73h-4Z"/><path class="cls-1" d="M267.49,198.51a14.48,14.48,0,0,1,2.7-9.15,9.18,9.18,0,0,1,13.94-.49V176h4.23v35.1h-3.89l-.2-2.65a8.62,8.62,0,0,1-7.06,3.11,8.47,8.47,0,0,1-7-3.52,14.7,14.7,0,0,1-2.71-9.19Zm4.23.48a10.94,10.94,0,0,0,1.74,6.58,5.61,5.61,0,0,0,4.8,2.38,6.17,6.17,0,0,0,5.87-3.61V193a6.22,6.22,0,0,0-5.83-3.5,5.64,5.64,0,0,0-4.84,2.4Q271.72,194.28,271.72,199Z"/><path class="cls-2" d="M291.65,208.18h-1.1v-.4h2.7v.4h-1.1v2.9h-.5Zm3.5,2.9-.9-2.9v2.9h-.5v-3.4h.8l.9,2.8.9-2.8h.8v3.4h-.6v-2.9l-.9,2.9Z"/><path class="cls-3" d="M224,137.5H180.31a23.45,23.45,0,1,1,0-46.9H224a23.45,23.45,0,0,1,0,46.9ZM180.31,95.4a18.65,18.65,0,0,0,0,37.3H224a18.65,18.65,0,1,0,0-37.3Z"/><path class="cls-3" d="M175.76,117.1h-103A32.07,32.07,0,0,1,61.6,55a35,35,0,0,1-1.09-8.68A46.3,46.3,0,0,1,106.79,0h.08l31.52.05a34.24,34.24,0,0,1,32.77,25h4.6a46.05,46.05,0,1,1,0,92.1ZM63.1,59.53a27.27,27.27,0,0,0,9.66,52.77h103a41.25,41.25,0,0,0,0-82.5h-3.63a33.49,33.49,0,0,1,.29,4.39A14.94,14.94,0,0,1,157.5,49.11H138.26a12,12,0,0,1-12-12.06,12.12,12.12,0,0,1,12.09-12h27.82A29.43,29.43,0,0,0,138.38,4.85l-31.51,0h-.08A41.5,41.5,0,0,0,65.31,46.29a30.26,30.26,0,0,0,.9,7.35A32.2,32.2,0,0,1,72.76,53H108.1a14.22,14.22,0,0,1,0,28.43H95.62A35.17,35.17,0,0,1,63.1,59.53Zm4.66-1.31A30.35,30.35,0,0,0,95.62,76.59H108.1a9.42,9.42,0,0,0,0-18.83H72.76A27.51,27.51,0,0,0,67.76,58.22ZM138.32,29.8A7.3,7.3,0,0,0,131,37.06a7.24,7.24,0,0,0,7.23,7.25H157.5a10.12,10.12,0,0,0,10.11-10.12,30.24,30.24,0,0,0-.32-4.39Z"/></g></g></svg>