<?xml version="1.0" encoding="utf-8"?>
<!-- Generator: Adobe Illustrator 20.1.0, SVG Export Plug-In . SVG Version: 6.00 Build 0)  -->
<!DOCTYPE svg PUBLIC "-//W3C//DTD SVG 1.1//EN" "http://www.w3.org/Graphics/SVG/1.1/DTD/svg11.dtd">
<svg version="1.1" id="Layer_1" xmlns="http://www.w3.org/2000/svg" xmlns:xlink="http://www.w3.org/1999/xlink" x="0px" y="0px"
	 viewBox="0 0 500 500" enable-background="new 0 0 500 500" xml:space="preserve">
<g>
	<path fill="#8ED1E7" d="M11.4,393.7c39.3,66.8,157,94.8,252.9,92.5c133.2-3.2,244.4-55.2,235.2-118.5c-1.9-12.7-5.7-20.2-18.9-29.5
		c29.1,60-112.8,98.3-216.9,100.9c-90.5,2.3-228.4-25.3-259-105.2C-3.9,351.5,5,382.8,11.4,393.7"/>
	<path fill="#8ED1E7" d="M270.8,236.6c57.5-0.3,100.4-8.9,138.3-25c3.6,15.5,2.5,37-3.9,42c-7.3,8.4-30.8,16-40.4,18.1
		c-27.9,6.3-60.4,12.3-94.2,12.9C89.4,282.6,2.4,206.3,1,139.6C-0.4,63.6,104.9,14,263,13.6c67.7-0.2,119.6,17.6,145.8,28.6
		c7.7,3.5,6.9,7.7-2.9,3.7c-51-19.6-84.6-24.5-143.2-25.7C178.9,18.3,24,51.7,30.2,137.6C33.1,179.3,117.2,238.9,270.8,236.6"/>
	<path fill="#8ED1E7" d="M10.4,290c50.7,79.4,180,98,250.9,96.4c137.4-3.3,244.9-54.7,235.6-131.1C480.7,125.8,214.1,105.7,100,175
		c-4.1,2.7-6.8,8.2,3,3.1c66.1-28.5,85.8-32.2,154.4-35.6c224.3-8.4,331.7,190.1,2.8,197.9c-93,2.4-231.3-38.6-256.3-113.2
		C-4.8,246,2.9,275.8,10.4,290"/>
</g>
</svg>
