<?xml version="1.0" encoding="UTF-8" standalone="no"?>
<!-- Created with Inkscape (http://www.inkscape.org/) -->

<svg
   xmlns:dc="http://purl.org/dc/elements/1.1/"
   xmlns:cc="http://creativecommons.org/ns#"
   xmlns:rdf="http://www.w3.org/1999/02/22-rdf-syntax-ns#"
   xmlns:svg="http://www.w3.org/2000/svg"
   xmlns="http://www.w3.org/2000/svg"
   xmlns:sodipodi="http://sodipodi.sourceforge.net/DTD/sodipodi-0.dtd"
   xmlns:inkscape="http://www.inkscape.org/namespaces/inkscape"
   id="svg4136"
   version="1.1"
   inkscape:version="0.91 r13725"
   xml:space="preserve"
   width="144.87262"
   height="210.1965"
   viewBox="0 0 144.87262 210.1965"
   sodipodi:docname="yeti-trimmed.svg"><metadata
     id="metadata4142"><rdf:RDF><cc:Work
         rdf:about=""><dc:format>image/svg+xml</dc:format><dc:type
           rdf:resource="http://purl.org/dc/dcmitype/StillImage" /><dc:title></dc:title></cc:Work></rdf:RDF></metadata><defs
     id="defs4140"><clipPath
       clipPathUnits="userSpaceOnUse"
       id="clipPath4162"><path
         d="M 0,440 440,440 440,0 0,0 0,440 Z"
         id="path4164"
         inkscape:connector-curvature="0" /></clipPath></defs><sodipodi:namedview
     pagecolor="#ffffff"
     bordercolor="#666666"
     borderopacity="1"
     objecttolerance="10"
     gridtolerance="10"
     guidetolerance="10"
     inkscape:pageopacity="0"
     inkscape:pageshadow="2"
     inkscape:window-width="1872"
     inkscape:window-height="1075"
     id="namedview4138"
     showgrid="false"
     inkscape:zoom="2.2363636"
     inkscape:cx="-8.7025803"
     inkscape:cy="78.607554"
     inkscape:window-x="1869"
     inkscape:window-y="116"
     inkscape:window-maximized="0"
     inkscape:current-layer="svg4136"
     fit-margin-top="0"
     fit-margin-left="0"
     fit-margin-right="0"
     fit-margin-bottom="0" /><g
     id="g4144"
     inkscape:groupmode="layer"
     inkscape:label="PureCloud-API-Icon-Rev-RGB"
     transform="matrix(1.25,0,0,-1.25,-205.67412,424.47512)"><g
       id="g4158"><g
         id="g4160"
         clip-path="url(#clipPath4162)"><g
           id="g4166"
           transform="translate(205.0083,309.4351)"><path
             d="m 0,0 c -1.232,0.006 -2.029,2.797 -2.917,6.807 -1.08,4.873 2.593,8.319 3.922,3.241 C 2.335,4.97 2.701,-0.014 0,0 m -7.459,-3.694 c -1.037,0.006 -1.708,2.354 -2.455,5.729 -0.908,4.101 2.182,7.001 3.301,2.727 1.119,-4.273 1.427,-8.468 -0.846,-8.456 m -13.789,-38.718 4.719,-1.393 -1.005,-0.983 -4.869,-1.278 3.103,-0.451 c 0.703,-0.263 -1.947,-0.935 -3.665,-1.852 -12.577,-7.428 -15.518,-16.908 -12.413,-27.852 0,0 0.599,-5.146 5.354,-7.015 0,4.266 2.337,5.91 2.337,5.91 l 0.688,-2.403 1.728,4.132 0.865,-1.008 2.483,4.965 c 0.657,0.497 1.256,0.936 1.767,1.301 4.16,2.969 4.048,3.262 8.558,5.627 5.68,2.978 11.531,6.001 17.292,8.966 5.35,2.755 10.834,6.018 16.92,6.726 2.219,0.258 3.424,-0.114 1.357,-1.776 -3.021,-2.431 -4.577,-3.312 -7.929,-5.253 -1.719,-0.995 -5.4,-3.077 -7.097,-4.109 -1.073,-0.653 -3.421,-1.683 -4.034,-2.833 0.444,0.832 -1.801,-12.534 -10.667,-20.964 -0.067,-0.064 -0.114,-0.12 -0.177,-0.182 -1.252,-1.141 -2.466,-2.289 -3.6,-3.45 l -10.883,-6.556 4.53,-0.713 c -0.375,-0.499 -0.674,-0.996 -1.03,-1.495 l -5.487,-1.275 3.878,-1.096 c -0.234,-0.358 -0.503,-0.714 -0.727,-1.07 l -3.866,-1.19 2.31,-1.47 c -5.052,-8.89 -7.37,-17.441 -8.401,-24.102 -2.616,-7.1 -11.26,-3.16 -11.26,-11.458 l 10.514,0 9.799,0 22.466,0 c 0.328,4.175 1.105,7.885 2.195,11.262 l 1.035,-1.718 0,4.554 c 0.009,0.024 0.018,0.049 0.028,0.073 l 1.706,-1.314 0,4.034 2.607,-2.449 0,7.886 c 6.111,9.141 14.77,15.385 22.016,22.404 0.067,0.067 0.109,0.132 0.189,0.18 4.776,4.652 8.841,9.722 11.162,16.187 1.748,4.869 2.534,10.507 1.735,17.475 -1.253,10.939 -3.471,20.673 -6.014,29.113 l 2.173,-0.757 7.203,-2.737 -8.715,10.383 c -2.11,2.128 -4.365,4.022 -4.576,4.572 l 6.521,0.748 c 0,0 -9.884,10.189 -12.108,12.476 l 3.024,-0.519 -6.699,6.922 C 24.183,3.532 23.157,5.002 23.157,5.002 L 21.494,8.12 c -0.832,1.894 -1.649,3.562 -2.469,5.129 l 2.757,1.312 -4.217,0.613 c -0.096,0.493 -0.095,0.49 -0.19,0.983 l 4.407,2.561 -6.977,0.887 c -0.234,0.264 -0.462,0.544 -0.703,0.787 1.522,1.177 2.999,2.175 3.315,1.86 -4.254,2.051 -8.166,2.842 -11.428,3.03 l 1.443,0.902 -4.024,0 0,1.8 -3.756,-2.649 0,4.81 -4.602,-6.742 C -11.488,20.616 -16.13,14.192 -16.13,6.665 l 0,-10.394 c 0,-0.62 0.038,-1.231 0.095,-1.835 0,0 0,-12.984 7.785,-22.492 2.494,2.341 3.229,4.326 6.286,7.218 0.192,0.182 0.394,0.38 0.603,0.59 l 0.817,0.799 c 11.838,11.586 24.039,4.755 26.563,0.795 1.712,-2.687 3.642,-7.335 2.748,-6.283 -5.921,6.965 -7.937,7.253 -10.818,7.686 -5.932,0.889 -12.694,-2.836 -16.712,-6.771 l -6.654,-8.905 -13.128,-5.948 7.053,0 -9.756,-3.537 z"
             style="fill:#f05625;fill-opacity:1;fill-rule:nonzero;stroke:none"
             id="path4168"
             inkscape:connector-curvature="0" /></g><g
           id="g4170"
           transform="translate(271.2178,194.7969)"><path
             d="m 0,0 c -5.726,2.821 -9.449,4.91 -12.384,7.636 l 3.308,0 -5.726,4.033 1.836,0 -5.27,4.886 2.308,-0.707 -4.617,4.856 -0.096,-0.134 c -0.76,1.69 -1.563,3.56 -2.438,5.655 0,-3.103 -15.033,-20.226 -15.033,-20.226 0,0 0.058,-0.403 0.25,-1.133 l 1.846,-9.763 0,4.874 c 0.26,-0.544 0.547,-1.113 0.873,-1.709 l 1.432,-5.183 0.321,2.269 c 1.983,-3.005 4.778,-6.416 8.703,-9.917 0.772,-3.588 -4.895,-3.667 -4.63,-8.811 l 17.072,0 6.598,0 2.206,0 c 0,0 13.381,18.477 3.441,23.374"
             style="fill:#f05625;fill-opacity:1;fill-rule:nonzero;stroke:none"
             id="path4172"
             inkscape:connector-curvature="0" /></g><g
           id="g4174"
           transform="translate(276.6924,237.4399)"><path
             d="M 0,0 0,3.169 C -1.152,1.882 -2.584,1.662 -3.78,1.785 -4.213,1.979 -4.668,2.13 -5.145,2.22 c -0.396,0.073 -0.78,0.203 -1.162,0.339 -0.38,0.2 -0.717,0.348 -1.014,0.449 -6.674,3.395 -11.125,15.727 -15.352,21.601 -0.305,0.424 -1.037,2.15 -1.679,3.149 l -1.088,1.168 c 1.955,-6.491 3.661,-13.977 4.625,-22.39 0.614,-5.36 0.008,-9.696 -1.335,-13.44 0.402,-0.388 0.956,-0.902 1.605,-1.46 l -0.004,0 4.125,-4.441 0,1.486 c 0.517,-0.288 1.036,-0.545 1.555,-0.749 l 2.148,-2.05 -0.434,1.578 c 0.846,-0.164 1.685,-0.265 2.507,-0.265 1.892,0 3.692,0.434 5.306,1.262 0.006,0.003 0.011,0.004 0.017,0.007 0.149,0.079 0.276,0.167 0.421,0.248 0.232,0.133 0.469,0.259 0.694,0.41 7.729,4.772 7.955,12.462 7.955,12.462 L 0,0 Z"
             style="fill:#f05625;fill-opacity:1;fill-rule:nonzero;stroke:none"
             id="path4176"
             inkscape:connector-curvature="0" /></g></g></g></g></svg>
